<?xml version="1.0" encoding="UTF-8"?>
<svg xmlns="http://www.w3.org/2000/svg" xmlns:xlink="http://www.w3.org/1999/xlink" width="125px" height="125px" viewBox="0 0 125 125" version="1.1">
<g id="surface1">
<path style=" stroke:none;fill-rule:nonzero;fill:rgb(0%,0%,0%);fill-opacity:1;" d="M 55.75 22.425781 C 54.449219 23.101562 55.398438 20.75 46.5 45.25 C 45.976562 46.699219 44.699219 50.199219 43.648438 53.023438 C 41.5 58.875 41.300781 60.101562 42.375 61.101562 C 43.226562 61.898438 44.375 62 52.523438 62 C 59.074219 62 59.449219 62.023438 59.875 62.5 C 60.550781 63.25 60.300781 64.324219 58.125 69.75 C 57.074219 72.425781 54.449219 79 52.324219 84.375 C 50.199219 89.726562 47.976562 95.324219 47.375 96.800781 C 46 100.050781 45.773438 101.25 46.375 101.851562 C 47.148438 102.625 47.773438 102.226562 49.648438 99.75 C 50.648438 98.449219 51.75 97.023438 52.101562 96.601562 C 52.449219 96.148438 52.75 95.726562 52.75 95.648438 C 52.75 95.574219 53.699219 94.226562 54.851562 92.675781 C 58.574219 87.75 59 87.175781 61.523438 83.75 C 62.875 81.898438 65.5 78.351562 67.351562 75.875 C 69.175781 73.398438 71.875 69.75 73.324219 67.75 C 74.800781 65.75 77.449219 62.148438 79.25 59.75 C 82.550781 55.300781 83.199219 54.074219 82.898438 52.875 C 82.675781 52 81.675781 51.101562 80.726562 50.898438 C 80.273438 50.824219 77.324219 50.75 74.101562 50.75 L 68.273438 50.75 L 67.773438 50.101562 C 67.125 49.25 67.25 48.675781 68.625 46.25 C 69.199219 45.226562 70.175781 43.476562 70.75 42.375 C 71.351562 41.273438 72 40.050781 72.25 39.625 C 80.625 24.601562 80.675781 24.5 79.300781 22.976562 L 78.550781 22.125 L 67.574219 22.050781 C 57.523438 22 56.550781 22.023438 55.75 22.425781 Z M 55.75 22.425781 "/>
</g>
</svg>
